<?xml version="1.0" standalone="no"?>
<!DOCTYPE svg PUBLIC "-//W3C//DTD SVG 20010904//EN"
 "http://www.w3.org/TR/2001/REC-SVG-20010904/DTD/svg10.dtd">
<svg version="1.0" xmlns="http://www.w3.org/2000/svg"
 width="2048.000000pt" height="2048.000000pt" viewBox="0 0 2048.000000 2048.000000"
 preserveAspectRatio="xMidYMid meet">

<g transform="translate(0.000000,2048.000000) scale(0.100000,-0.100000)"
fill="#000000" stroke="none">
<path d="M9300 16034 c-86 -23 -190 -77 -246 -127 -76 -68 -127 -147 -532
-812 -94 -154 -174 -288 -177 -296 -3 -9 12 -45 36 -85 111 -182 159 -327 159
-478 0 -146 -37 -246 -117 -316 -65 -57 -116 -75 -218 -75 -80 0 -95 3 -135
27 -101 59 -136 126 -154 294 -14 128 -28 154 -80 154 -64 0 -75 -19 -176
-302 l-39 -109 30 -17 c94 -52 319 -198 347 -225 19 -18 45 -50 58 -73 33 -56
91 -75 251 -82 195 -7 238 8 678 247 209 113 295 138 370 107 46 -20 157 -96
153 -105 -2 -5 -27 -28 -57 -52 -30 -24 -56 -49 -58 -56 -3 -6 13 -24 35 -38
l39 -26 92 38 92 37 34 -19 c42 -22 115 -83 115 -95 0 -5 -27 -28 -61 -51
l-61 -43 34 -28 c18 -15 41 -30 50 -33 10 -4 53 10 98 30 68 31 83 34 102 24
33 -17 138 -99 138 -107 0 -4 -15 -17 -33 -30 -18 -12 -45 -35 -60 -50 l-27
-28 45 -32 45 -31 72 34 c40 19 82 35 93 35 22 0 79 -35 132 -81 l31 -27 -54
-46 c-30 -26 -54 -51 -54 -56 0 -5 15 -21 34 -35 l34 -26 88 37 c97 40 112 40
229 5 39 -12 76 -20 82 -19 15 4 -204 166 -264 196 -22 12 -70 47 -105 77 -34
31 -100 79 -146 106 -46 27 -116 78 -157 113 -41 35 -110 83 -152 108 -43 25
-98 63 -123 85 -25 22 -103 81 -175 131 -71 50 -168 122 -215 161 -100 84
-154 111 -232 119 l-57 5 53 61 c88 101 131 165 201 296 37 69 107 193 155
275 48 83 120 211 160 285 71 132 259 460 408 712 47 79 103 158 151 210 42
46 82 92 90 101 13 16 -16 17 -490 16 -409 0 -514 -3 -559 -15z"/>
<path d="M11424 15790 c-159 -21 -277 -79 -449 -218 -245 -197 -564 -459 -690
-567 -71 -61 -196 -166 -277 -233 -277 -229 -628 -549 -628 -572 0 -4 51 -41
113 -82 61 -42 260 -182 442 -311 181 -130 333 -233 337 -231 4 3 8 1 8 -4 0
-11 74 -67 305 -234 435 -312 585 -401 870 -513 165 -65 342 -124 350 -117 3
4 9 1 13 -5 8 -12 144 -55 322 -102 112 -30 620 -134 626 -129 2 3 -79 77
-455 412 -86 76 -268 241 -406 366 -560 509 -783 706 -845 746 -99 63 -145 76
-303 82 -76 2 -136 8 -135 12 2 4 46 41 99 81 219 167 382 293 578 444 113 88
343 266 511 395 168 129 357 275 420 325 63 50 174 135 245 190 125 95 321
249 338 264 11 10 -1314 11 -1389 1z"/>
<path d="M7572 13777 c-20 -24 -162 -399 -162 -428 0 -3 28 -9 63 -12 67 -7
277 -62 475 -126 l123 -39 -7 32 c-17 80 -96 343 -110 364 -16 24 -211 155
-294 197 -56 28 -73 31 -88 12z"/>
<path d="M8130 13389 c55 -34 150 -75 350 -151 232 -88 655 -265 771 -323 101
-51 192 -123 255 -203 46 -59 128 -207 122 -221 -3 -10 -121 23 -522 145 -153
47 -281 82 -284 79 -8 -8 422 -434 477 -474 58 -41 157 -71 376 -115 298 -59
534 -94 1000 -145 736 -82 1879 -107 2082 -46 69 21 122 61 144 108 35 78 16
238 -29 251 -24 7 -176 32 -333 55 -269 40 -495 97 -947 240 -234 75 -410 122
-526 142 -102 17 -304 7 -391 -21 -96 -30 -195 -78 -195 -95 0 -18 120 -163
165 -198 60 -47 126 -76 220 -96 204 -44 813 -104 1435 -141 183 -11 394 -36
418 -49 38 -21 -398 -55 -593 -46 -60 2 -173 7 -250 10 -387 16 -948 77 -1118
121 -75 19 -169 66 -224 110 -23 19 -78 82 -123 140 -130 168 -292 317 -443
407 -167 101 -501 221 -907 326 -172 45 -919 211 -947 211 -12 0 -6 -7 17 -21z"/>
<path d="M7349 13197 c-30 -19 -39 -38 -75 -142 -23 -66 -40 -123 -37 -127 2
-4 15 -3 29 2 70 27 321 1 542 -54 160 -41 482 -159 469 -172 -2 -2 -92 16
-199 41 -281 65 -473 96 -628 102 -150 6 -203 -3 -241 -41 -25 -24 -83 -182
-95 -254 l-6 -40 43 10 c74 19 309 13 469 -11 80 -12 345 -60 590 -107 245
-47 479 -91 520 -99 41 -8 138 -26 215 -40 77 -14 149 -28 159 -32 28 -8 5 18
-273 310 -263 277 -322 330 -431 386 -115 59 -598 215 -822 265 -143 32 -185
33 -229 3z"/>
<path d="M7185 12410 c152 -108 450 -187 805 -215 41 -3 174 -14 295 -25 121
-11 333 -29 470 -40 138 -11 328 -29 424 -40 96 -11 175 -19 177 -17 4 3 -586
122 -836 167 -91 17 -230 44 -310 60 -363 72 -704 121 -895 127 l-160 5 30
-22z"/>
</g>
</svg>
